X Lossless Decoder version 20110502 (132.0)

XLD extraction logfile from 2011-05-03 15:50:42 +0900

SUEMITSU & THE SUEMITH / Allegro Cantabile

Used drive : HL-DT-ST BD-RE  BH10NS30 (revision EL00)

Ripper mode             : CDParanoia III 10.2
Disable audio cache     : OK for the drive with a cache less than 2750KiB
Make use of C2 pointers : NO
Read offset correction  : 667
Max retry count         : 100
Gap status              : Analyzed, Appended

TOC of the extracted CD
     Track |   Start  |  Length  | Start sector | End sector 
    ---------------------------------------------------------
        1  | 00:00:00 | 01:05:00 |         0    |     4874   
        2  | 01:05:00 | 04:13:00 |      4875    |    23849   
        3  | 05:18:00 | 04:32:00 |     23850    |    44249   
        4  | 09:50:00 | 07:15:15 |     44250    |    76889   

AccurateRip Summary
    Track 01 : OK (confidence 3)
    Track 02 : OK (confidence 3)
    Track 03 : OK (confidence 3)
    Track 04 : NG
        ->3 track(s) accurately ripped, 1 track(s) not, 0 track(s) not found

All Tracks
    Filename : /Users/angelicalbite/Music/flac/Allegro Cantabile.flac
    CRC32 hash             : 7C3DCA93
    CRC32 hash (skip zero) : 794906CE
    Statistics
        Read error                           : 0
        Skipped (treated as error)           : 0
        Edge jitter error (maybe fixed)      : 2
        Atom jitter error (maybe fixed)      : 1
        Drift error (maybe fixed)            : 0
        Dropped bytes error (maybe fixed)    : 1
        Duplicated bytes error (maybe fixed) : 1

Track 01
    Pre-gap length : 00:02:00

    CRC32 hash             : 15D7692A
    CRC32 hash (skip zero) : 0CFAAEA1
    AccurateRip signature  : BB775E79
        ->Accurately ripped! (confidence 3)
    Statistics
        Read error                           : 0
        Skipped (treated as error)           : 0
        Edge jitter error (maybe fixed)      : 0
        Atom jitter error (maybe fixed)      : 0
        Drift error (maybe fixed)            : 0
        Dropped bytes error (maybe fixed)    : 0
        Duplicated bytes error (maybe fixed) : 0

Track 02
    Pre-gap length : 00:00:45

    CRC32 hash             : B59F0BFD
    CRC32 hash (skip zero) : 30188152
    AccurateRip signature  : 553384DC
        ->Accurately ripped! (confidence 3)
    Statistics
        Read error                           : 0
        Skipped (treated as error)           : 0
        Edge jitter error (maybe fixed)      : 0
        Atom jitter error (maybe fixed)      : 0
        Drift error (maybe fixed)            : 0
        Dropped bytes error (maybe fixed)    : 0
        Duplicated bytes error (maybe fixed) : 0

Track 03
    Pre-gap length : 00:03:45

    CRC32 hash             : 2C4E4C36
    CRC32 hash (skip zero) : 360A7735
    AccurateRip signature  : A9AF573A
        ->Accurately ripped! (confidence 3)
    Statistics
        Read error                           : 0
        Skipped (treated as error)           : 0
        Edge jitter error (maybe fixed)      : 0
        Atom jitter error (maybe fixed)      : 0
        Drift error (maybe fixed)            : 0
        Dropped bytes error (maybe fixed)    : 0
        Duplicated bytes error (maybe fixed) : 0

Track 04
    Pre-gap length : 00:03:45

    CRC32 hash             : FFB2E7D8
    CRC32 hash (skip zero) : 051F63B3
    AccurateRip signature  : 1D53FFCC
        ->Rip may not be accurate.
    Statistics
        Read error                           : 0
        Skipped (treated as error)           : 0
        Edge jitter error (maybe fixed)      : 2
        Atom jitter error (maybe fixed)      : 1
        Drift error (maybe fixed)            : 0
        Dropped bytes error (maybe fixed)    : 1
        Duplicated bytes error (maybe fixed) : 1

No errors occurred

End of status report
